<mxfile host="app.diagrams.net" modified="2023-04-23T15:01:05.842Z" agent="Mozilla/5.0 (Macintosh; Intel Mac OS X 10_15_7) AppleWebKit/537.36 (KHTML, like Gecko) Chrome/112.0.0.0 Safari/537.36" etag="xERzp8c2moB8l4nYp4Nx" version="21.2.1" type="device">
  <diagram name="Page-1" id="o5PcaElq_XGbvMKDVTLv">
    <mxGraphModel dx="2069" dy="796" grid="1" gridSize="10" guides="1" tooltips="1" connect="1" arrows="1" fold="1" page="1" pageScale="1" pageWidth="827" pageHeight="1169" math="0" shadow="0">
      <root>
        <mxCell id="0" />
        <mxCell id="1" parent="0" />
        <mxCell id="6pYlwdGqV38ZCGphUnjz-1" value="AbstractRepository" style="swimlane;fontStyle=1;align=center;verticalAlign=top;childLayout=stackLayout;horizontal=1;startSize=26;horizontalStack=0;resizeParent=1;resizeParentMax=0;resizeLast=0;collapsible=1;marginBottom=0;whiteSpace=wrap;html=1;" parent="1" vertex="1">
          <mxGeometry x="280" y="20" width="160" height="130" as="geometry" />
        </mxCell>
        <mxCell id="6pYlwdGqV38ZCGphUnjz-3" value="" style="line;strokeWidth=1;fillColor=none;align=left;verticalAlign=middle;spacingTop=-1;spacingLeft=3;spacingRight=3;rotatable=0;labelPosition=right;points=[];portConstraint=eastwest;strokeColor=inherit;" parent="6pYlwdGqV38ZCGphUnjz-1" vertex="1">
          <mxGeometry y="26" width="160" height="8" as="geometry" />
        </mxCell>
        <mxCell id="6pYlwdGqV38ZCGphUnjz-4" value="&lt;font style=&quot;font-size: 14px;&quot;&gt;get()&lt;br&gt;create()&lt;br&gt;update()&lt;br&gt;delete()&lt;br&gt;list()&lt;br&gt;&lt;/font&gt;" style="text;strokeColor=none;fillColor=none;align=left;verticalAlign=top;spacingLeft=4;spacingRight=4;overflow=hidden;rotatable=0;points=[[0,0.5],[1,0.5]];portConstraint=eastwest;whiteSpace=wrap;html=1;" parent="6pYlwdGqV38ZCGphUnjz-1" vertex="1">
          <mxGeometry y="34" width="160" height="96" as="geometry" />
        </mxCell>
        <mxCell id="6pYlwdGqV38ZCGphUnjz-35" style="edgeStyle=orthogonalEdgeStyle;rounded=0;orthogonalLoop=1;jettySize=auto;html=1;exitX=0.75;exitY=1;exitDx=0;exitDy=0;entryX=0.5;entryY=0;entryDx=0;entryDy=0;" parent="1" source="6pYlwdGqV38ZCGphUnjz-5" target="6pYlwdGqV38ZCGphUnjz-17" edge="1">
          <mxGeometry relative="1" as="geometry" />
        </mxCell>
        <mxCell id="6pYlwdGqV38ZCGphUnjz-37" style="edgeStyle=orthogonalEdgeStyle;rounded=0;orthogonalLoop=1;jettySize=auto;html=1;exitX=0.25;exitY=1;exitDx=0;exitDy=0;entryX=0.5;entryY=0;entryDx=0;entryDy=0;" parent="1" source="6pYlwdGqV38ZCGphUnjz-5" target="6pYlwdGqV38ZCGphUnjz-26" edge="1">
          <mxGeometry relative="1" as="geometry" />
        </mxCell>
        <mxCell id="6pYlwdGqV38ZCGphUnjz-40" value="depends" style="edgeStyle=orthogonalEdgeStyle;rounded=0;orthogonalLoop=1;jettySize=auto;html=1;exitX=0.5;exitY=0;exitDx=0;exitDy=0;entryX=0.5;entryY=1.01;entryDx=0;entryDy=0;entryPerimeter=0;endArrow=diamondThin;endFill=1;" parent="1" source="6pYlwdGqV38ZCGphUnjz-5" target="6pYlwdGqV38ZCGphUnjz-4" edge="1">
          <mxGeometry relative="1" as="geometry" />
        </mxCell>
        <mxCell id="6pYlwdGqV38ZCGphUnjz-5" value="AbstractService" style="swimlane;fontStyle=1;align=center;verticalAlign=top;childLayout=stackLayout;horizontal=1;startSize=26;horizontalStack=0;resizeParent=1;resizeParentMax=0;resizeLast=0;collapsible=1;marginBottom=0;whiteSpace=wrap;html=1;" parent="1" vertex="1">
          <mxGeometry x="280" y="250" width="160" height="78" as="geometry" />
        </mxCell>
        <mxCell id="6pYlwdGqV38ZCGphUnjz-6" value="&lt;font style=&quot;font-size: 14px;&quot;&gt;_repository: AbstractRepository&lt;/font&gt;" style="text;strokeColor=none;fillColor=none;align=left;verticalAlign=top;spacingLeft=4;spacingRight=4;overflow=hidden;rotatable=0;points=[[0,0.5],[1,0.5]];portConstraint=eastwest;whiteSpace=wrap;html=1;" parent="6pYlwdGqV38ZCGphUnjz-5" vertex="1">
          <mxGeometry y="26" width="160" height="44" as="geometry" />
        </mxCell>
        <mxCell id="6pYlwdGqV38ZCGphUnjz-7" value="" style="line;strokeWidth=1;fillColor=none;align=left;verticalAlign=middle;spacingTop=-1;spacingLeft=3;spacingRight=3;rotatable=0;labelPosition=right;points=[];portConstraint=eastwest;strokeColor=inherit;" parent="6pYlwdGqV38ZCGphUnjz-5" vertex="1">
          <mxGeometry y="70" width="160" height="8" as="geometry" />
        </mxCell>
        <mxCell id="6pYlwdGqV38ZCGphUnjz-9" value="UserService" style="swimlane;fontStyle=1;align=center;verticalAlign=top;childLayout=stackLayout;horizontal=1;startSize=26;horizontalStack=0;resizeParent=1;resizeParentMax=0;resizeLast=0;collapsible=1;marginBottom=0;whiteSpace=wrap;html=1;" parent="1" vertex="1">
          <mxGeometry x="-80" y="440" width="160" height="188" as="geometry" />
        </mxCell>
        <mxCell id="6pYlwdGqV38ZCGphUnjz-10" value="&lt;font style=&quot;font-size: 14px;&quot;&gt;_repository: UserRepository&lt;/font&gt;" style="text;strokeColor=none;fillColor=none;align=left;verticalAlign=top;spacingLeft=4;spacingRight=4;overflow=hidden;rotatable=0;points=[[0,0.5],[1,0.5]];portConstraint=eastwest;whiteSpace=wrap;html=1;" parent="6pYlwdGqV38ZCGphUnjz-9" vertex="1">
          <mxGeometry y="26" width="160" height="44" as="geometry" />
        </mxCell>
        <mxCell id="6pYlwdGqV38ZCGphUnjz-11" value="" style="line;strokeWidth=1;fillColor=none;align=left;verticalAlign=middle;spacingTop=-1;spacingLeft=3;spacingRight=3;rotatable=0;labelPosition=right;points=[];portConstraint=eastwest;strokeColor=inherit;" parent="6pYlwdGqV38ZCGphUnjz-9" vertex="1">
          <mxGeometry y="70" width="160" height="8" as="geometry" />
        </mxCell>
        <mxCell id="6pYlwdGqV38ZCGphUnjz-12" value="&lt;font style=&quot;font-size: 14px;&quot;&gt;get_user()&lt;br style=&quot;border-color: var(--border-color);&quot;&gt;new_user()&lt;br style=&quot;border-color: var(--border-color);&quot;&gt;get_user_by_email()&lt;br style=&quot;border-color: var(--border-color);&quot;&gt;update_user()&lt;br style=&quot;border-color: var(--border-color);&quot;&gt;get_all_users()&lt;br style=&quot;border-color: var(--border-color);&quot;&gt;delete_user()&lt;/font&gt;" style="text;strokeColor=none;fillColor=none;align=left;verticalAlign=top;spacingLeft=4;spacingRight=4;overflow=hidden;rotatable=0;points=[[0,0.5],[1,0.5]];portConstraint=eastwest;whiteSpace=wrap;html=1;" parent="6pYlwdGqV38ZCGphUnjz-9" vertex="1">
          <mxGeometry y="78" width="160" height="110" as="geometry" />
        </mxCell>
        <mxCell id="6pYlwdGqV38ZCGphUnjz-17" value="MealService&lt;br&gt;" style="swimlane;fontStyle=1;align=center;verticalAlign=top;childLayout=stackLayout;horizontal=1;startSize=26;horizontalStack=0;resizeParent=1;resizeParentMax=0;resizeLast=0;collapsible=1;marginBottom=0;whiteSpace=wrap;html=1;" parent="1" vertex="1">
          <mxGeometry x="400" y="440" width="160" height="180" as="geometry" />
        </mxCell>
        <mxCell id="6pYlwdGqV38ZCGphUnjz-18" value="&lt;font style=&quot;font-size: 14px;&quot;&gt;_repository: MealRepository&lt;/font&gt;" style="text;strokeColor=none;fillColor=none;align=left;verticalAlign=top;spacingLeft=4;spacingRight=4;overflow=hidden;rotatable=0;points=[[0,0.5],[1,0.5]];portConstraint=eastwest;whiteSpace=wrap;html=1;" parent="6pYlwdGqV38ZCGphUnjz-17" vertex="1">
          <mxGeometry y="26" width="160" height="44" as="geometry" />
        </mxCell>
        <mxCell id="6pYlwdGqV38ZCGphUnjz-19" value="" style="line;strokeWidth=1;fillColor=none;align=left;verticalAlign=middle;spacingTop=-1;spacingLeft=3;spacingRight=3;rotatable=0;labelPosition=right;points=[];portConstraint=eastwest;strokeColor=inherit;" parent="6pYlwdGqV38ZCGphUnjz-17" vertex="1">
          <mxGeometry y="70" width="160" height="8" as="geometry" />
        </mxCell>
        <mxCell id="6pYlwdGqV38ZCGphUnjz-20" value="&lt;font style=&quot;font-size: 14px;&quot;&gt;get_meal()&lt;br style=&quot;border-color: var(--border-color);&quot;&gt;new_product()&lt;br style=&quot;border-color: var(--border-color);&quot;&gt;list_meals()&lt;br style=&quot;border-color: var(--border-color);&quot;&gt;update_meal()&lt;br style=&quot;border-color: var(--border-color);&quot;&gt;delete_meal()&lt;/font&gt;" style="text;strokeColor=none;fillColor=none;align=left;verticalAlign=top;spacingLeft=4;spacingRight=4;overflow=hidden;rotatable=0;points=[[0,0.5],[1,0.5]];portConstraint=eastwest;whiteSpace=wrap;html=1;" parent="6pYlwdGqV38ZCGphUnjz-17" vertex="1">
          <mxGeometry y="78" width="160" height="102" as="geometry" />
        </mxCell>
        <mxCell id="6pYlwdGqV38ZCGphUnjz-26" value="ProductService" style="swimlane;fontStyle=1;align=center;verticalAlign=top;childLayout=stackLayout;horizontal=1;startSize=26;horizontalStack=0;resizeParent=1;resizeParentMax=0;resizeLast=0;collapsible=1;marginBottom=0;whiteSpace=wrap;html=1;" parent="1" vertex="1">
          <mxGeometry x="160" y="440" width="160" height="200" as="geometry" />
        </mxCell>
        <mxCell id="6pYlwdGqV38ZCGphUnjz-27" value="&lt;font style=&quot;font-size: 14px;&quot;&gt;_repository: ProductRepository&lt;/font&gt;" style="text;strokeColor=none;fillColor=none;align=left;verticalAlign=top;spacingLeft=4;spacingRight=4;overflow=hidden;rotatable=0;points=[[0,0.5],[1,0.5]];portConstraint=eastwest;whiteSpace=wrap;html=1;" parent="6pYlwdGqV38ZCGphUnjz-26" vertex="1">
          <mxGeometry y="26" width="160" height="44" as="geometry" />
        </mxCell>
        <mxCell id="6pYlwdGqV38ZCGphUnjz-28" value="" style="line;strokeWidth=1;fillColor=none;align=left;verticalAlign=middle;spacingTop=-1;spacingLeft=3;spacingRight=3;rotatable=0;labelPosition=right;points=[];portConstraint=eastwest;strokeColor=inherit;" parent="6pYlwdGqV38ZCGphUnjz-26" vertex="1">
          <mxGeometry y="70" width="160" height="8" as="geometry" />
        </mxCell>
        <mxCell id="6pYlwdGqV38ZCGphUnjz-29" value="&lt;font style=&quot;font-size: 14px;&quot;&gt;get_product()&lt;br style=&quot;border-color: var(--border-color);&quot;&gt;new_product()&lt;br style=&quot;border-color: var(--border-color);&quot;&gt;list_products()&lt;br style=&quot;border-color: var(--border-color);&quot;&gt;update_product()&lt;br style=&quot;border-color: var(--border-color);&quot;&gt;delete_product()&lt;br&gt;search_product()&lt;br&gt;&lt;/font&gt;" style="text;strokeColor=none;fillColor=none;align=left;verticalAlign=top;spacingLeft=4;spacingRight=4;overflow=hidden;rotatable=0;points=[[0,0.5],[1,0.5]];portConstraint=eastwest;whiteSpace=wrap;html=1;" parent="6pYlwdGqV38ZCGphUnjz-26" vertex="1">
          <mxGeometry y="78" width="160" height="122" as="geometry" />
        </mxCell>
        <mxCell id="6pYlwdGqV38ZCGphUnjz-30" value="DiaryService" style="swimlane;fontStyle=1;align=center;verticalAlign=top;childLayout=stackLayout;horizontal=1;startSize=26;horizontalStack=0;resizeParent=1;resizeParentMax=0;resizeLast=0;collapsible=1;marginBottom=0;whiteSpace=wrap;html=1;" parent="1" vertex="1">
          <mxGeometry x="640" y="440" width="160" height="160" as="geometry" />
        </mxCell>
        <mxCell id="6pYlwdGqV38ZCGphUnjz-31" value="&lt;font style=&quot;font-size: 14px;&quot;&gt;_repository: DiaryRepository&lt;/font&gt;" style="text;strokeColor=none;fillColor=none;align=left;verticalAlign=top;spacingLeft=4;spacingRight=4;overflow=hidden;rotatable=0;points=[[0,0.5],[1,0.5]];portConstraint=eastwest;whiteSpace=wrap;html=1;" parent="6pYlwdGqV38ZCGphUnjz-30" vertex="1">
          <mxGeometry y="26" width="160" height="44" as="geometry" />
        </mxCell>
        <mxCell id="6pYlwdGqV38ZCGphUnjz-32" value="" style="line;strokeWidth=1;fillColor=none;align=left;verticalAlign=middle;spacingTop=-1;spacingLeft=3;spacingRight=3;rotatable=0;labelPosition=right;points=[];portConstraint=eastwest;strokeColor=inherit;" parent="6pYlwdGqV38ZCGphUnjz-30" vertex="1">
          <mxGeometry y="70" width="160" height="8" as="geometry" />
        </mxCell>
        <mxCell id="6pYlwdGqV38ZCGphUnjz-33" value="&lt;font style=&quot;font-size: 14px;&quot;&gt;get_diary()&lt;br style=&quot;border-color: var(--border-color);&quot;&gt;new_diary()&lt;br style=&quot;border-color: var(--border-color);&quot;&gt;update_diary()&lt;br style=&quot;border-color: var(--border-color);&quot;&gt;delete_diary()&lt;br&gt;&lt;/font&gt;" style="text;strokeColor=none;fillColor=none;align=left;verticalAlign=top;spacingLeft=4;spacingRight=4;overflow=hidden;rotatable=0;points=[[0,0.5],[1,0.5]];portConstraint=eastwest;whiteSpace=wrap;html=1;" parent="6pYlwdGqV38ZCGphUnjz-30" vertex="1">
          <mxGeometry y="78" width="160" height="82" as="geometry" />
        </mxCell>
        <mxCell id="6pYlwdGqV38ZCGphUnjz-36" style="edgeStyle=orthogonalEdgeStyle;rounded=0;orthogonalLoop=1;jettySize=auto;html=1;exitX=1;exitY=0.5;exitDx=0;exitDy=0;" parent="1" source="6pYlwdGqV38ZCGphUnjz-6" target="6pYlwdGqV38ZCGphUnjz-30" edge="1">
          <mxGeometry relative="1" as="geometry" />
        </mxCell>
        <mxCell id="6pYlwdGqV38ZCGphUnjz-38" style="edgeStyle=orthogonalEdgeStyle;rounded=0;orthogonalLoop=1;jettySize=auto;html=1;exitX=0;exitY=0.5;exitDx=0;exitDy=0;entryX=0.5;entryY=0;entryDx=0;entryDy=0;" parent="1" source="6pYlwdGqV38ZCGphUnjz-6" target="6pYlwdGqV38ZCGphUnjz-9" edge="1">
          <mxGeometry relative="1" as="geometry" />
        </mxCell>
      </root>
    </mxGraphModel>
  </diagram>
</mxfile>
